PathFileType	4	(X/Y/Z)	/home/abdul/Desktop/myosuite/custom_workspace/IK/output/01_12_1.trc
DataRate	CameraRate	NumFrames	NumMarkers	Units	OrigDataRate	OrigDataStartFrame	OrigNumFrames
200.0	200.0	40	3	mm	200.0	744	1486
Frame#	Time	V_Shoulder			V_Elbow			V_Wrist		
		X1	Y1	Z1	X2	Y2	Z2	X3	Y3	Z3

744	3.715	36.188923290051775	845.1797499606722	311.10438768781313	-50.2906429810484	609.629136792696	142.2427239126411	53.400737006075445	623.9621780663691	351.68038496261516
745	3.72	36.157467649405255	845.2284754550516	311.0448599062658	-50.15513668092154	609.9886285277528	141.49697015589894	53.51819408090326	623.6944198438416	350.98549302498077
746	3.725	36.125893069210065	845.2774712611958	310.9849999351456	-50.02114943337109	610.3519081685326	140.74667758556316	53.63607159662601	623.4233369171291	350.28468450599826
747	3.73	36.09420998802935	845.3266765385839	310.92482517441607	-49.88881598232257	610.7189248034821	139.99199610147724	53.75428863565473	623.1490985593457	349.57802673404234
748	3.735	36.062428647986586	845.376028438434	310.8643518282834	-49.75827102208409	611.0896339990734	139.233063981638	53.87276393895072	622.8718725446557	348.8655746292668
749	3.74	36.03055905405757	845.425462172208	310.8035948227684	-49.629649176810936	611.4639980932191	138.4700076641929	53.99141591623736	622.5918243414145	348.14737038575356
750	3.745	35.998610931615474	845.4749110815104	310.7425677275051	-49.50308498989277	611.8419864507418	137.70294159548345	54.110162647905085	622.309116294977	347.4234432048017
751	3.75	35.96659368241746	845.5243067092694	310.6812826823905	-49.37871292291422	612.2235756789598	136.93196814547792	54.228921878517696	622.0239068026203	346.693809080877
752	3.755	35.93451633924785	845.5735788721205	310.6197503297142	-49.25666736371964	612.6087498016484	136.15717759159926	54.34761100187459	621.7363494831085	345.95847064151906
753	3.76	35.90238751945947	845.6226557339309	310.55797975240097	-49.13708264299407	612.9975003898413	135.37864817160448	54.46614703763088	621.4465923435058	345.21741704227816
754	3.765	35.87021537767965	845.6714638804311	310.4959784189948	-49.0200930586564	613.3898266481649	134.59644620581244	54.58444659952528	621.1547769459116	344.4706239175182
755	3.77	35.83800755797137	845.719928394943	310.43375213600416	-48.90583290725044	613.7857354556173	133.81062628860883	54.70242585531601	620.8610375768428	343.71805338767695
756	3.775	35.80577114576203	845.7679729352113	310.37130500821354	-48.79443652141593	614.1852413599581	133.02123154878387	54.820000478578756	620.5655004220303	342.9596541233222
757	3.78	35.773512619872754	845.8155198113622	310.30863940754233	-48.68603831242671	614.5883665251075	132.22829397788178	54.93708559257766	620.2682827494259	342.1953614660797
758	3.785	35.741237805000985	845.8624900650334	310.24575595100526	-48.58077281669864	614.9951406312139	131.43183482536426	55.053595706480266	619.9694921032294	341.42509760623625
759	3.79	35.70895182502696	845.9088035497242	310.18265348828635	-48.478774745095265	615.4056007272998	130.63186505901416	55.16944464424776	619.6692255117498	340.64877181654526
760	3.795	35.67665905753228	845.954379012424	310.11932909939554	-48.380179033796296	615.8197910366491	129.82838588863655	55.28454546659229	619.3675687119065	339.8662807414791
761	3.8	35.64436308993317	845.9991341765877	310.0557781028194	-48.28512089544217	616.2377627153548	129.02138935075214	55.3988103864512	619.0645953931598	339.07750874089265
762	3.805	35.612066677639405	846.0429858265248	309.9919940745217	-48.19373586922784	616.6595735646922	128.21085895162938	55.51215067848494	618.7603664636234	338.282328286777
763	3.81	35.57977170464786	846.0858498932831	309.9279688780893	-48.106159868590524	617.0852876982244	127.39677036566589	55.6244765831602	618.4549293410699	337.48060041150484
764	3.815	35.54747914696292	846.1276415421008	309.8636927062676	-48.02252922511967	617.5149751647887	126.57909218581254	55.73569720603462	618.1483172714829	336.672175205694
765	3.82	35.51518903920398	846.168275261524	309.7991541340851	-47.94298072731255	617.9487115287357	125.75778672243521	55.845720412913025	617.8405486777359	335.85689236354415
766	3.825	35.48290044471715	846.2076649542809	309.7343401837224	-47.86765165280502	618.3865774090141	124.93281084672961	55.95445272159851	617.5316265409003	335.03458177324467
767	3.83	35.45061142946096	846.2457240300167	309.6692364012317	-47.79667979272278	618.8286579789062	124.10411687454939	56.06179919101308	617.2215378165936	334.2050641497982
768	3.835	35.41831903988924	846.2823654999897	309.60382694515584	-47.73020346682227	619.2750424284039	123.27165348627737	56.16766330851104	616.9102528886798	333.3681517073703
769	3.84	35.386019285012324	846.3175020738194	309.5380946870239	-47.66836152812051	619.7258233913994	122.43536667816988	56.27194687625331	616.5977250625301	332.52364886805583
770	3.845	35.35370712278123	846.3510462583654	309.472021323615	-47.61129335574914	620.1810963400133	121.59520074043661	56.374549897550175	616.2838900999438	331.6713530037515
771	3.85	35.321376450905426	846.3829104588045	309.4055875007892	-47.55913883481177	620.6409589485279	120.75109925718095	56.47537046411438	615.9686657977144	330.8110552076488
772	3.855	35.28902010218513	846.4130070819439	309.33877294858075	-47.51203832207709	621.1055104295217	119.90300612321633	56.57430464519581	615.6519516117175	329.94254109170504
773	3.86	35.25662984440914	846.4412486417942	309.27155662714307	-47.47013259640574	621.5748508449183	119.05086657268754	56.67124637959539	615.3336283282695	329.0655916063247
774	3.865	35.22419638484202	846.4675478674066	309.2039168830258	-47.433562792886846	622.0490803947744	118.19462821436316	56.766087371579175	615.0135577843853	328.1799838783743
775	3.87	35.19170937929554	846.4918178129439	309.1358316151548	-47.402470319748915	622.5282986867251	117.33424206842666	56.85871699173542	614.6915826384256	327.2854920635791
776	3.875	35.15915744575396	846.513971969947	309.06727844977644	-47.376996757207586	623.0126039890861	116.46966359958256	56.949022183835744	614.3675261924835	326.3818882092916
777	3.88	35.12652818249567	846.533924381718	308.9982349235225	-47.357283737518195	623.5020924706739	115.6008537413133	57.036887378776015	614.0411922677079	325.4689431235988
778	3.885	35.09380819063045	846.5515897597248	308.92867867365095	-47.34347280561428	623.9968574304451	114.72777990617217	57.12219441668217	613.7123651336107	324.5464272467314
779	3.89	35.06098310094979	846.5668836019032	308.8585876344196	-47.33570525983593	624.4969885200801	113.85041697707885	57.20482247827111	613.3808094922388	323.6141115207656
780	3.895	35.02803760496906	846.5797223126978	308.78794023846086	-47.33412197238406	625.0025709626323	112.96874827469823	57.28464802655799	613.0462705179273	322.671768253653
781	3.9	34.99495549002521	846.5900233246508	308.71671562194	-47.33886318928141	625.513684770347	112.08276649612804	57.361544759997386	612.7084739531753	321.7191719736891
782	3.905	34.96171967828224	846.5977052213233	308.64489383220644	-47.35006830977566	626.0304039647174	111.1924746202975	57.43538357813674	612.3671262610105	320.75610027061816
783	3.91	34.92831226948706	846.6026878612824	308.57245603657594	-47.36787564528575	626.5527958017847	110.29788677568398	57.50603256084227	612.0219148340243	319.78233461968944
